<svg id="Font_White" data-name="Font White" xmlns="http://www.w3.org/2000/svg" viewBox="0 0 1908.7 589.42"><defs><style>.cls-1,.cls-2{fill:#5e84dc;stroke-width:0}.cls-2{fill:#fff}</style></defs><path class="cls-2" d="M442.34 467.38c-15.5 0-29.88-2.61-43.14-7.84-13.27-5.23-24.74-12.54-34.42-21.93-9.69-9.39-17.24-20.38-22.66-32.97-5.42-12.59-8.13-26.34-8.13-41.25s2.71-28.66 8.13-41.25c5.42-12.58 12.97-23.57 22.66-32.97 9.68-9.39 21.11-16.7 34.28-21.93 13.17-5.23 27.6-7.84 43.28-7.84s29.82 2.57 42.99 7.7c13.17 5.13 24.59 12.39 34.28 21.79 9.68 9.39 17.18 20.43 22.51 33.12 5.32 12.69 7.99 26.48 7.99 41.39s-2.66 28.95-7.99 41.54-12.83 23.58-22.51 32.97c-9.69 9.39-21.11 16.66-34.28 21.79-13.17 5.13-27.5 7.7-42.99 7.7Zm-.29-25.86c11.42 0 21.93-1.93 31.52-5.81 9.59-3.87 17.91-9.34 24.98-16.41s12.59-15.34 16.56-24.84c3.97-9.49 5.95-19.85 5.95-31.08s-1.99-21.54-5.95-30.94c-3.97-9.39-9.49-17.67-16.56-24.84-7.07-7.16-15.4-12.68-24.98-16.56-9.59-3.87-20.09-5.81-31.52-5.81s-21.64 1.94-31.23 5.81c-9.59 3.88-17.96 9.39-25.13 16.56-7.17 7.17-12.74 15.44-16.7 24.84-3.97 9.39-5.96 19.71-5.96 30.94s1.98 21.6 5.96 31.08c3.97 9.49 9.54 17.77 16.7 24.84s15.54 12.54 25.13 16.41c9.59 3.88 19.99 5.81 31.23 5.81ZM594.55 465.05V261.71h23.82l134.5 167.03h-12.49V261.71h29.05v203.34h-23.82l-134.5-167.03h12.49v167.03h-29.05ZM859.47 439.78h118.52v25.27H830.42V261.71h143.5v25.27H859.47v152.8Zm-2.61-90.34h104.58v24.69H856.86v-24.69ZM1103.19 465.05V261.71h85.69c21.69 0 40.81 4.26 57.37 12.78 16.56 8.52 29.44 20.44 38.64 35.73 9.19 15.3 13.8 33.02 13.8 53.16s-4.6 37.86-13.8 53.16c-9.2 15.3-22.08 27.21-38.64 35.73-16.56 8.52-35.68 12.78-57.37 12.78h-85.69Zm29.05-25.27h54.9c16.85 0 31.42-3.2 43.72-9.59 12.3-6.39 21.83-15.35 28.62-26.87 6.77-11.52 10.17-24.84 10.17-39.94s-3.39-28.66-10.17-40.09c-6.78-11.42-16.32-20.33-28.62-26.73-12.3-6.39-26.87-9.59-43.72-9.59h-54.9v152.8ZM1312.34 465.05l92.08-203.34h28.76l92.37 203.34h-30.5l-82.21-187.07h11.62l-82.21 187.07h-29.92Zm39.21-50.83 7.84-23.24h114.45l8.43 23.24h-130.72ZM1596.14 465.05V286.98h-69.72v-25.27h168.19v25.27h-69.72v178.07h-28.76ZM1695.48 465.05l92.08-203.34h28.76l92.37 203.34h-30.5l-82.21-187.07h11.62l-82.21 187.07h-29.92Zm39.22-50.83 7.84-23.24h114.45l8.43 23.24H1734.7Z"/><path class="cls-1" d="M0 239.55h28.91v251.53H0zM115.74 251.55v10.8H66.13v-10.8h49.61m12-12h-73.6v34.8h73.61v-34.8ZM164.29 305.73v10.8H66.13v-10.8h98.16m12-12H54.14v34.8H176.3v-34.8ZM234.55 359.91v10.8H66.14v-10.8h168.42m11.99-12H54.14v34.8h192.42v-34.8ZM164.29 414.09v10.8H66.13v-10.8h98.16m12-12H54.14v34.8H176.3v-34.8ZM115.74 468.27v10.8H66.13v-10.8h49.61m12-12h-73.6v34.8h73.61v-34.8Z"/></svg>